# xmcd
#
# Track frame offsets:
#	150
#	14837
#	29638
#	46704
#	63934
#	79116
#	94012
#	108755
#	122148
#	136316
#	154493
#
# Disc length: 2283 seconds
#
# Revision: 0
# Processed by: cddbd v1.5.1PL0 Copyright (c) Steve Scherf et al.
# Submitted via: dBpowerAMP V4.0
#
DISCID=8e08e90b
DTITLE=Redfern And Crookes - After All That, This
DYEAR=1900
DGENRE=
TTITLE0=Down Any Country Road
TTITLE1=Find My Way Back To You
TTITLE2=Little Blue Bag
TTITLE3=It Comes As No Surprise
TTITLE4=Holdin' Back
TTITLE5=Hold Onto Love
TTITLE6=Recompense
TTITLE7=After All That This
TTITLE8=Fool In Love
TTITLE9=The Punchline
TTITLE10=Madalaina
EXTD=
EXTT0=
EXTT1=
EXTT2=
EXTT3=
EXTT4=
EXTT5=
EXTT6=
EXTT7=
EXTT8=
EXTT9=
EXTT10=
PLAYORDER=
